<?xml version="1.0" encoding="utf-8"?>
<!-- Generator: Adobe Illustrator 24.0.1, SVG Export Plug-In . SVG Version: 6.00 Build 0)  -->
<svg version="1.1" id="Layer_1" xmlns="http://www.w3.org/2000/svg" xmlns:xlink="http://www.w3.org/1999/xlink" x="0px" y="0px"
	 viewBox="0 0 1000 1000" style="enable-background:new 0 0 1000 1000;" xml:space="preserve">
<g>
	<path d="M491,94.2c223.6,0.2,405.7,182.2,405,405.4c-0.7,226.5-182.7,404.8-405.3,405C267,904.8,85.3,722.6,85.6,499.3
		C85.9,275.5,267.6,94,491,94.2z M490.9,857.7c197.5-0.1,357.9-160.4,358.1-357.8c0.2-197.8-160.6-358.7-358.3-358.6
		S132.5,302,132.6,499.6C132.7,697.2,293.4,857.8,490.9,857.7z"/>
	<path d="M480.9,466.9c0,13,0,25.9,0,38.9c0,7.1-1.3,8.4-8.6,7.8c-23.6-1.7-44.6-10.3-64.2-23.3c-13.5-8.9-28.7-13.8-44.1-18.3
		c-12-3.5-24.1-4.9-36.5-4.3c-9.7,0.5-18.6,3.1-25.7,10.1c-0.8,0.8-1.7,1.4-2.7,2c-3.2,1.8-4.8,0.8-4.6-2.9c0.1-1.6,0.4-3.2,0.7-4.7
		c3.6-16.3,8.4-32.1,16.8-46.7c10-17.5,30-25.9,49.2-19.7c0.9,0.3,1.8,0.8,2.8,0.7c1.5,0,3-0.3,4.4-0.5c-0.4-1.4-0.4-3.1-1.1-4.3
		c-5.8-9-9.6-18.7-10.5-29.5c-0.8-9.1,1.7-17.4,6.1-25.2c0.8-1.5,2.8-2.3,4.2-3.5c0.8,1.6,1.9,3.1,2.4,4.8
		c3.9,13.2,10.1,25.1,22,32.6c9.8,6.2,23.1-1.3,23.8-12.9c0.7-11.4,1.8-22.7,7.5-32.9c6.1-10.9,17.2-14.7,29.1-10.7
		c14.2,4.9,26.9,12.5,39.4,20.6c18.1,11.8,36.3,23.4,54.5,35c29.3,18.6,58.6,37.1,87.8,55.9c16.7,10.7,33.4,21.4,49.6,32.8
		c6.1,4.3,11.4,10.2,16,16.2c7.8,10.2,4.5,20.1-2.3,29.5c-7.1,9.8-16.5,16.9-26.4,23.5c-34.9,23.5-69.4,47.4-104.6,70.4
		c-26.9,17.5-54.4,34.1-82,50.5c-10.1,6-20.9,11.3-32,15c-13.9,4.6-27.4-0.2-32.2-18.2c-2.3-8.6-3.2-17.6-4.1-26.5
		c-0.9-9.2-2.3-11.1-11.4-12.1c-8-0.8-15.5-0.3-23,4.3c-20.2,12.4-48.9,7.1-62.5-10.9c-5.5-7.3-7.4-15.8-7.3-24.8
		c0-1.1,0.8-3,1.5-3.2c1.1-0.2,2.8,0.4,3.7,1.2c5.3,5.4,11.8,8.7,18.9,11c9.5,3,18.6,1.6,26.6-3.8c8.9-6.1,10.9-19.5,5.8-30.9
		c-7.1-16-20.5-22.6-36.6-24.9c-12.9-1.9-25.3,1.3-37.1,5.7c-10.8,4-21,10-31.5,15c-1.1,0.5-2.6,0.2-3.9,0.2
		c0.2-1.1,0.1-2.6,0.7-3.4c16.8-20,36.2-36.6,62.5-41.9c21.1-4.3,42.1-2.5,62.7,4.7c27.3,9.6,49.5,27,72.4,43.6
		c7.5,5.4,16.4,9.1,25,12.8c7.6,3.2,15.7,1.5,22.2-2.6c30.3-19.4,60.3-39.3,90.3-59c2.1-1.4,4-3.2,5.7-5.1c4.3-5.1,3.4-11-2.2-14.8
		c-31.9-21.7-63.7-43.4-95.6-64.9c-3.8-2.6-8-4.9-12.4-6.1c-6.6-1.8-9.7,1-9.7,7.8c-0.1,13.3,0,26.6,0,39.8
		C480.5,466.9,480.7,466.9,480.9,466.9z"/>
</g>
</svg>
